inDegrees=yes
name=ik_20250225_orientations
DataType=double
version=3
OpenSimVersion=4.5
endheader
time	pelvis_tilt	pelvis_list	pelvis_rotation	pelvis_tx	pelvis_ty	pelvis_tz	hip_flexion_r	hip_adduction_r	hip_rotation_r	knee_angle_r_beta	knee_angle_r	ankle_angle_r	subtalar_angle_r	mtp_angle_r	hip_flexion_l	hip_adduction_l	hip_rotation_l	knee_angle_l_beta	knee_angle_l	ankle_angle_l	subtalar_angle_l	mtp_angle_l	flex_extension	lat_bending	axial_rotation	L4_L5_IVDjnt_r3	L4_L5_IVD_bendjnt_r1	L4_L5_IVD_rotjnt_r2	L3_L4_IVDjnt_r3	L3_L4_IVD_bendjnt_r1	L3_L4_IVD_rotjnt_r2	L2_L3_IVDjnt_r3	L2_L3_IVD_bendjnt_r1	L2_L3_IVD_rotjnt_r2	L1_L2_IVDjnt_r3	L1_L2_IVD_bendjnt_r1	L1_L2_IVD_rotjnt_r2	Torso_Rot	Abs_r3	Abs_t1	Abs_t2	LB_wrapjnt_r3	LB_wrapjnt_t1	LB_wrapjnt_t2	arm_flex_r	arm_add_r	arm_rot_r	elbow_flex_r	pro_sup_r	wrist_flex_r	wrist_dev_r	arm_flex_l	arm_add_l	arm_rot_l	elbow_flex_l	pro_sup_l	wrist_flex_l	wrist_dev_l
4.875000000000002	0.7044718902307298	-7.064006838817835	89.84311062506056	0	5.965334408854792e-09	0	7.709119951346901	3.811719903973298	-0.07271004959806826	0.241200783873944	-13.81978693122412	10.32899811428271	0	0	32.75301733351669	4.58990308309451	4.517766678306211	0.4715915081892046	-27.02020307345062	5.65728978215208	0	0	-5.015338848659282e-08	0.02014814969621933	0.4444918954497594	-4.137951583528968e-07	0.2090459815785612	1.07529650868327	-5.883506228955823e-07	0.2832111232154625	1.07529650868327	-7.086759330741299e-07	0.2887488626681674	0.8489159070264778	-1.475422413176285e-08	0.2169576854579943	0.7357288488227938	5.237254443168646	-1.847300152762446e-06	0	0	-1.72414649313707e-06	-1.858337294569109e-09	-6.194457648563698e-10	22.57454460980943	-14.61876201997211	10.27361059764973	51.02993533076135	44.85696678843804	0	0	-14.96568148648329	-12.6429929166211	-0.2880703774640286	3.470909464067946	70.10868220127233	0	0
4.900000000000002	-2.967443813222473	-0.8641138870411585	75.69331643277975	0	5.965334408854792e-09	0	10.30176696331006	4.421313411977977	10.91264185900223	0.3753051786805749	-21.50340276780019	10.28776553244562	0	0	37.05756245386581	0.906211227271887	-5.234080757100395	0.5114683939076015	-29.30498032524027	7.111762475887872	0	0	-5.01533884865928e-08	-0.005276551605747794	0.4377825736067851	-4.137951583528967e-07	-0.05474656116836774	1.059065593277978	-5.883506228955822e-07	-0.07416949593384189	1.059065593277978	-7.086759330741298e-07	-0.07561976151365583	0.8361020625083501	-1.475422413176285e-08	-0.05681853871661009	0.7246234908028948	5.158201425571529	-1.847300152762446e-06	0	0	-1.72414649313707e-06	-1.858337294569109e-09	-6.194457648563698e-10	27.60793674655818	-10.61331954347139	16.30505280123399	64.98784510700786	48.03377420453465	0	0	-26.92921072554649	-10.74495420799217	-9.389304137529201	23.19725636063983	54.76849011029517	0	0
4.925000000000002	0.7489632319289403	-7.14211712274888	89.8402231633906	0	5.965334408854792e-09	-4.778613929473548e-51	5.517758935176022	3.220181785422925	-0.592435464500266	0.2055729471785075	-11.77846225539428	9.906804765432087	-1.509397544698337e-30	3.531125038440127e-31	33.77401021026089	5.936950907551518	4.069335248503459	0.4493541941447234	-25.74609883099486	5.202713257688983	-4.372525926505938e-31	1.436847192765664e-30	-5.01533884865928e-08	0.02305429838517035	0.4387922163761786	-4.137951583528967e-07	0.2391985620613755	1.061508079532644	-5.883506228955822e-07	0.3240612085502668	1.061508079532644	-7.086759330741298e-07	0.3303977059282841	0.8380303357032644	-1.475422413176285e-08	0.2482514420886552	0.7262946648334055	5.17009760665863	-1.847300152762446e-06	3.155443620884047e-30	7.888609052210118e-31	-1.72414649313707e-06	-1.858337294569109e-09	-6.194457648563698e-10	23.85781371293924	-14.81787450419267	6.793745373038336	57.55684665204667	48.10771946792675	2.215616154054173e-31	6.429582990067449e-31	-18.07765781663765	-12.5022065498266	-1.128593096325613	1.404091140920696	68.45015196969248	-5.932365228144914e-32	8.33938412207902e-31
4.950000000000003	0.8650793914510396	-7.078969006448831	89.82118573132136	-4.732268040046143e-38	5.965334408854792e-09	4.307989377507946e-36	4.434518964184753	3.009460100575259	-0.8632296484578532	0.1943524337328747	-11.13557419098973	9.946108606391601	5.655317444376766e-32	6.786380933252119e-31	33.69014432163407	5.981877198240016	3.172292139458694	0.4487131799817516	-25.70937142484846	5.354677207078476	6.40016413217273e-31	6.069121159818968e-32	-5.01533884865928e-08	0.02619980280005582	0.4322101191173263	-4.137951583528967e-07	0.2718345642692008	1.045584940607701	-5.883506228955822e-07	0.3682757816922383	1.045584940607701	-7.086759330741298e-07	0.3754768241604796	0.8254594719331133	-1.475422413176285e-08	0.2821226098008678	0.7153998906234168	5.092543620934297	-1.847300152762446e-06	3.948156385993833e-33	-2.69630192214213e-33	-1.72414649313707e-06	-1.858337294569109e-09	-6.194457648563699e-10	23.74253105430122	-14.83247719866695	5.197524211774931	59.91418462916958	50.06899101982948	-1.006922374242692e-31	-2.317300806476333e-31	-19.2392152346481	-12.32317528654031	-1.360861789097359	0.7616039013804468	68.30527244444974	-1.655214861768809e-32	7.724336021587778e-32
4.975000000000003	0.998608150927157	-6.921581343049216	89.78707513420825	0	5.965334408854792e-09	0	3.363938185173261	2.779380071807608	-1.103250783505771	0.1873387429435135	-10.73371930994956	10.10335208521667	0	0	33.10016011566363	5.982426699471573	2.176177888828231	0.44893706195556	-25.72219891705675	5.564564060883777	0	0	-5.015338848659279e-08	0.02927459033635896	0.4227941378023419	-4.137951583528966e-07	0.3037368475241549	1.022806185949903	-5.883506228955821e-07	0.4114963277441023	1.022806185949903	-7.086759330741296e-07	0.4195424786965069	0.8074762951859509	-1.475422413176284e-08	0.3152322897074347	0.6998144341407948	4.981599213435491	-1.847300152762446e-06	0	0	-1.724146493137069e-06	-1.858337294569109e-09	-6.194457648563698e-10	23.08079517249817	-14.73576248744882	3.941366215346859	61.54355702895893	51.76952600241253	0	0	-20.08951761625172	-12.2292715209713	-1.436224485985584	0.4715271196616395	68.73938275424014	0	0
5.000000000000004	1.07557793342711	-6.667871227667685	89.75904091066289	0	5.965334408854792e-09	2.109019270245062e-37	2.283033240137831	2.44740338862936	-1.475129891118131	0.184431274541275	-10.56713364143365	10.3436462594681	-2.260895080641471e-25	-1.407491681323051e-26	31.97197986840363	6.140676478416687	1.426378975225529	0.4463018217185762	-25.57121077347452	5.796275811176855	8.026718121002581e-26	-2.143665594981633e-26	-5.01533884865928e-08	0.03090860718358483	0.4085739113192981	-4.137951583528967e-07	0.3206904964147208	0.9884051990108043	-5.883506228955822e-07	0.4344647766405613	0.9884051990108043	-7.086759330741298e-07	0.4429600387866852	0.7803176977254499	-1.475422413176285e-08	0.3328275785314024	0.6762769276812383	4.814048477204793	-1.847300152762446e-06	-1.105416765716209e-27	5.299267982871908e-28	-1.72414649313707e-06	-1.858337294569109e-09	-6.194457648563698e-10	22.02028600910506	-14.69096657453721	3.200102966918954	62.26803026309485	52.82207202527413	-2.069018577211012e-32	-1.158650403238167e-31	-20.52839082177632	-12.08662910523669	-1.358180113497529	0.3864449731360447	68.97924037016321	-8.431250702134873e-32	3.603540688642512e-32
